<svg width="401" height="340" viewBox="0 0 401 340" fill="none" xmlns="http://www.w3.org/2000/svg">
<mask id="mask0_156_1400" style="mask-type:alpha" maskUnits="userSpaceOnUse" x="0" y="0" width="472" height="340">
<rect width="472" height="340" fill="#D9D9D9"/>
</mask>
<g mask="url(#mask0_156_1400)">
<path d="M165 382.5C122.5 332.5 55.0033 273.5 115.503 240C176.003 206.5 250.299 373.148 315 314.5C379.701 255.852 142 130.5 206 71.5C270 12.5 275.5 153.5 374.5 130.5C473.5 107.5 478.5 -18.5 478.5 -18.5" stroke="#4285F4" stroke-opacity="0.8" stroke-width="35" stroke-linecap="round"/>
<path d="M109.576 390C67.0766 340 -0.4205 281 60.0795 247.5C120.58 214 194.876 380.648 259.576 322C324.277 263.352 86.5762 138 150.576 79C214.576 20 220.076 161 319.076 138C418.076 115 423.076 -11 423.076 -11" stroke="#34A853" stroke-opacity="0.8" stroke-width="35" stroke-linecap="round"/>
<path d="M214.576 370C172.077 320 104.58 261 165.08 227.5C225.58 194 299.876 360.648 364.576 302C429.277 243.352 191.576 118 255.576 59C319.576 1.52588e-05 325.076 141 424.076 118C523.076 95 528.076 -31 528.076 -31" stroke="#EA4335" stroke-opacity="0.8" stroke-width="35" stroke-linecap="round"/>
<path d="M266.576 361C224.077 311 156.58 252 217.08 218.5C277.58 185 351.876 351.648 416.576 293C481.277 234.352 243.576 109 307.576 50C371.576 -8.99998 377.076 132 476.076 109C575.076 86 580.076 -40 580.076 -40" stroke="#F9AB00" stroke-opacity="0.8" stroke-width="35" stroke-linecap="round"/>
</g>
</svg>
